<svg xmlns="http://www.w3.org/2000/svg" viewBox="0 0 2699.73419 1060.046"><defs><style>.a{fill:#fff;}.b{fill:#121212;}</style></defs><title>coding-v-180</title><path class="a" d="M157.97509,1448.967c38.86817,3.82355,77.73609,2.97083,116.63159,3.3559,38.97828.27508,77.98365.24756,116.96192.30261l97.07373-.52264a18.19039,18.19039,0,0,1,18.26489,18.2099v.19256q-.0824,14.97785.22022,29.98316c.35742,19.97039.99023,39.96832,2.94336,59.93878a8.29822,8.29822,0,0,0,8.49975,7.482,8.52093,8.52093,0,0,0,8.032-7.8396c1.95313-19.86041,2.55835-39.72076,2.916-59.58117q.28857-15.019.22-29.98316v-.49512a18.1674,18.1674,0,0,1,18.07251-18.21c25.91187-.13751,51.824-.52264,77.73584-2.86078a8.325,8.325,0,0,0,7.53711-8.49981,8.57752,8.57752,0,0,0-7.92212-8.03217c-38.86792-3.49341-77.73608-2.58569-116.60425-3.02582l-116.989-.63269c-38.97827.05506-77.98364.02753-116.96192.30262-39.00561.38513-77.98364-.46766-116.98925,3.38342a8.31931,8.31931,0,0,0-7.48194,8.49982A8.544,8.544,0,0,0,157.97509,1448.967Z" transform="translate(-150.1329 -969.977)"/><path class="a" d="M506.93481,1644.87519c-.02759,3.52094-.05493,7.04187-.05493,10.59034-.08252,12.04828.13745,24.12408.2749,36.17236.11011,12.04822.30273,24.124.79785,36.1723.52246,12.04828,1.07276,24.124,2.11817,36.1723a8.25719,8.25719,0,0,0,8.52734,7.56458,8.529,8.529,0,0,0,8.00439-7.92218c1.01783-11.93823,1.59571-23.87647,2.09082-35.8147.49512-12.04828.6875-24.12408.79761-36.1723.13745-12.04828.35767-24.12408.24756-36.17236.02759-5.41895,0-10.83795-.05493-16.2569a21.71647,21.71647,0,0,1,16.75195-21.40082c26.04956-6.13415,52.04419-12.51587,77.59863-20.76813a8.27432,8.27432,0,0,0,5.36377-10.3703,8.529,8.529,0,0,0-9.40747-5.66656c-34.71435,4.92383-68.71362,13.03857-102.823,20.68561l-102.60279,23.13379-102.41015,24.04156c-34.10938,8.11469-68.38355,15.45917-101.83277,26.46216a8.28627,8.28627,0,0,0-5.33642,10.34283,8.545,8.545,0,0,0,9.38012,5.694c34.76929-4.75878,68.71363-13.09356,102.82276-20.6856l102.603-23.13379,69.89625-16.422A14.04222,14.04222,0,0,1,506.93481,1644.87519Z" transform="translate(-150.1329 -969.977)"/><path class="a" d="M210.32177,1206.04853c7.56446,2.94336,15.2666,5.364,22.99634,7.53711,7.75708,2.228,15.54175,4.15357,23.38135,5.94165,7.8396,1.76038,15.70679,3.43836,23.65649,4.81372,7.92188,1.40284,15.87158,2.61329,23.959,3.356a8.33705,8.33705,0,0,0,3.71338-16.09192c-7.59205-2.8883-15.29419-5.2539-23.05127-7.45446-7.7295-2.22815-15.51416-4.18116-23.35376-6.02417-7.8396-1.81543-15.67945-3.49341-23.62891-4.8689a239.42768,239.42768,0,0,0-23.98657-3.27332,8.3262,8.3262,0,0,0-3.686,16.06433Z" transform="translate(-150.1329 -969.977)"/><path class="a" d="M354.32348,985.52119c24.26148,14.77149,49.70581,27.17737,75.04028,39.7207,16.83448,8.3899,45.27735,22.36365,62.717,30.91846a26.47258,26.47258,0,0,1,14.88159,23.98657c-.02759,4.48365-.05518,8.99488-.05518,13.47864-.10986,12.59839.165,25.1969.30274,37.79529.08252,12.5708.41259,25.16919.85254,37.7677.5227,12.59839,1.04541,25.16931,2.0083,37.7677a8.28682,8.28682,0,0,0,8.52734,7.64709,8.54157,8.54157,0,0,0,8.00439-8.00463c.96289-12.48841,1.458-24.94935,1.98072-37.41016.44018-12.59851.77026-25.1969.85278-37.7677.10986-12.59839.4126-25.1969.30249-37.79529v-1.843a10.88235,10.88235,0,0,1,15.59668-9.82019q18.609,8.99487,37.32764,17.8523c25.69214,12.07593,50.99878,25.05932,77.9563,34.522a8.28931,8.28931,0,0,0,10.48022-4.73132,8.48339,8.48339,0,0,0-3.521-10.26026c-24.0415-15.29419-49.761-27.12243-75.06787-39.83081-25.41674-12.65344-50.97119-25.11438-76.49829-37.57531q-38.37267-18.52625-76.85571-36.85987c-25.637-12.21338-51.19141-24.59179-77.92871-34.5769a8.32748,8.32748,0,0,0-10.48023,4.34619A8.56882,8.56882,0,0,0,354.32348,985.52119Z" transform="translate(-150.1329 -969.977)"/><path class="a" d="M407.05517,1870.27137a91.17074,91.17074,0,0,0-14.24878,4.42871c-4.56616,1.8155-9.07739,3.7685-13.47876,5.99659q-6.60168,3.25964-12.95605,7.04193a109.94007,109.94007,0,0,0-12.35083,8.27972,8.44775,8.44775,0,0,0,7.207,14.85407,116.56544,116.56544,0,0,0,14.16626-4.56623c4.59375-1.788,9.105-3.76855,13.53369-5.85913q6.68445-3.13586,13.03857-6.90435a91.18238,91.18238,0,0,0,12.2959-8.44483,8.4834,8.4834,0,0,0-7.207-14.82648Z" transform="translate(-150.1329 -969.977)"/><path class="a" d="M543.02465,1284.47236c4.84131,1.04529,9.68262,2.063,14.52393,3.10834,10.45288,2.28308,20.90552,4.42871,31.386,6.54675,10.45288,2.11811,20.90576,4.26367,31.41357,6.27173a8.24159,8.24159,0,0,0,9.655-6.60181c.82519-4.31866-2.1731-8.44482-6.38159-9.60009-10.17774-2.72327-20.38306-5.33649-30.58838-7.94965-10.34278-2.66827-20.68555-5.309-31.05591-7.83966-12.90112-3.13586-25.802-6.35419-38.70288-9.51764a11.03246,11.03246,0,0,0-4.56641-1.2102c-.13745,0-.24756.02746-.385.02746-6.18921-1.51294-12.37841-3.05334-18.59521-4.51123l-62.35938-14.63391c-20.823-4.78638-41.72876-9.13257-63.04712-11.69067a8.26407,8.26407,0,0,0-9.13232,6.6018,8.50935,8.50935,0,0,0,5.749,9.57251c20.19043,6.95948,40.79346,12.15833,61.5066,16.94458l62.49707,14.08387a.20788.20788,0,0,1,.10986.02746,15.13658,15.13658,0,0,1,11.8833,14.88159c0,2.7782-.02759,5.55646-.02759,8.33472-.05493,9.68262.08252,19.3653.27515,29.02039.165,9.68261.49512,19.36523.90771,29.02038.52271,9.68262,1.04541,19.36524,1.98072,29.02039a8.29822,8.29822,0,0,0,8.49975,7.482,8.517,8.517,0,0,0,8.032-7.81207c.93531-9.54511,1.43067-19.11774,1.95313-28.69031.4126-9.65515.74268-19.33777.90771-29.02038.19263-9.65509.33008-19.33777.27515-29.02039v-2.06305A10.99251,10.99251,0,0,1,543.02465,1284.47236Z" transform="translate(-150.1329 -969.977)"/><path class="a" d="M2645.61285,1895.82582c-24.37158-14.524-49.67847-27.14991-75.04035-39.66577l-38.18035-18.92518-38.26288-18.76007c-25.55445-12.37835-51.13642-24.78424-76.80084-36.94256-25.747-12.04822-50.99884-25.08679-77.98371-34.49433a8.29363,8.29363,0,0,0-10.45282,4.73127,8.51481,8.51481,0,0,0,3.49347,10.26031c24.014,15.34912,49.761,27.09485,75.06787,39.83081q22.56985,11.26428,45.24976,22.30853a31.96232,31.96232,0,0,1,17.93487,28.71778v31.056a16.8345,16.8345,0,0,1-16.83459,16.83453h-327.834a24.327,24.327,0,0,1-24.31658-25.88452q1.89807-28.84158,5.19891-57.51807c1.62292-13.12109,4.01611-26.24212,6.95941-39.30822,2.14557-6.6568,4.84131-13.14856,9.43506-17.8523,6.38171-6.51929,15.98181-8.3623,25.0318-9.27h46.02a100.64316,100.64316,0,0,0,100.64984-100.64984V1257.70759a100.66073,100.66073,0,0,0-100.64984-100.64978H805.666a100.66067,100.66067,0,0,0-100.6499,100.64978v392.58655A100.6431,100.6431,0,0,0,805.666,1750.944h46.02c9.04981.90772,18.6499,2.75073,25.03174,9.27,4.75879,4.86878,7.48193,11.69067,9.68262,18.595a357.88157,357.88157,0,0,1,6.68432,38.56549c2.283,19.58527,4.01612,39.22565,5.30884,58.921a23.04221,23.04221,0,0,1-23.02368,24.48163H546.84814a17.51536,17.51536,0,0,1-17.52222-17.52222v-29.62554a33.066,33.066,0,0,1,19.03516-29.95563c4.70386-2.22809,9.43506-4.45624,14.13892-6.68433l26.7373-12.956,26.572-13.28614c17.63233-9.02246,35.1272-18.34747,52.04419-28.88281a8.28461,8.28461,0,0,0,2.77832-11.19555,8.49929,8.49929,0,0,0-10.31543-3.52094c-18.62256,6.76679-36.63989,14.689-54.54736,22.94122l-26.87476,12.68091-26.70971,13.01105q-26.57227,13.28613-53.00684,26.84729c-8.82983,4.51123-17.60474,9.07745-26.32471,13.83624-8.71972,4.67627-17.41211,9.46259-25.99463,14.44141a8.29158,8.29158,0,0,0-3.16308,11.03052,8.56422,8.56422,0,0,0,10.72778,3.686c9.105-3.631,18.12744-7.482,27.06738-11.38806,4.126-1.7605,8.22461-3.576,12.32325-5.39148a9.58247,9.58247,0,0,1,13.5061,8.74737v54.1897a11,11,0,0,0,11.00317,11.003H876.88281a24.20985,24.20985,0,0,1,24.23388,23.849c.08252,8.08716.1377,16.20191.08252,24.34412-.02734,17.24719.08252,34.52185,2.77832,51.79657a8.31728,8.31728,0,0,0,7.5647,7.04187,8.67026,8.67026,0,0,0,8.99487-7.427c2.61329-17.10962,2.72315-34.2193,2.69581-51.32892.19238-17.27472.05493-34.74195-.44019-52.09918-.02759-1.34784-.11011-2.66822-.13745-3.98853a11.07561,11.07561,0,0,0,.52246-3.19092,10.9212,10.9212,0,0,0-.79761-4.04358c-1.12768-31.02844-3.27344-62.05682-6.7395-92.94775a403.32042,403.32042,0,0,0-9.54492-52.29169c-1.65039-6.90436-8.36231-30.14819-8.36231-30.14819s-4.15356-13.58869-6.18921-20.41052c-.02758-.13752-3.57592-10.70038-3.57592-10.70038s-21.31836-58.45337-33.53174-86.95111q-10.27368-23.97282-21.2356-47.588-5.48766-11.8007-11.113-23.51886l-5.6941-11.71821-2.86059-5.83154a43.69876,43.69876,0,0,1-2.09082-4.78631,41.83934,41.83934,0,0,1-2.14551-19.91541,42.71768,42.71768,0,0,1,7.34448-18.67755,42.25182,42.25182,0,0,1,69.1814.49512l28.71777,42.85662,57.54566,85.93335a11.11979,11.11979,0,0,0,16.03674,2.55817,10.78674,10.78674,0,0,0,3.82361-11.30554v-.02753l-.02759-.11-31.02832-126.83692L957.012,1459.915a45.48625,45.48625,0,0,1-1.43042-13.28613,46.13071,46.13071,0,0,1,2.17309-13.09357,45.63448,45.63448,0,0,1,5.63916-12.07574,49.28376,49.28376,0,0,1,19.64026-17.6048,50.03216,50.03216,0,0,1,25.93958-4.8963,49.32621,49.32621,0,0,1,41.15112,29.818c.44019,1.01776.79773,2.063,1.18286,3.13587l1.10034,3.43841,2.33814,7.83966,4.67627,15.67926,9.29748,31.331,37.10755,125.324a11.067,11.067,0,0,0,14.634,7.15192,10.77658,10.77658,0,0,0,6.9043-9.71015v-.08252l8.14221-155.14209,1.04529-19.39276a49.833,49.833,0,0,1,37.05249-46.04754,48.17211,48.17211,0,0,1,15.43176-1.54041,53.11543,53.11543,0,0,1,15.4867,3.41095,46.90444,46.90444,0,0,1,13.45117,7.97717,51.00387,51.00387,0,0,1,10.42529,11.71814,51.87942,51.87942,0,0,1,6.10669,14.38642c.24756,1.29284.66016,2.55822.82519,3.85107l.49512,3.87854c.11011,2.72321.27515,4.95136.13758,8.47229l-.38514,19.42029-.74267,38.923c-.11,12.736-.68775,25.6095-.96277,38.703a399.21771,399.21771,0,0,0,.68762,40.02337,155.51981,155.51981,0,0,0,2.971,20.82318,76.39941,76.39941,0,0,0,7.94958,21.48334,40.99446,40.99446,0,0,0,3.521,5.28143,38.37572,38.37572,0,0,0,4.37366,4.9513,45.40733,45.40733,0,0,0,5.309,4.31872,56.65155,56.65155,0,0,0,6.05163,3.38343,47.43321,47.43321,0,0,0,25.14185,3.16333,48.19722,48.19722,0,0,0,5.69409-.93524,42.91516,42.91516,0,0,0,5.47388-1.26539l5.28149-1.51287,5.03394-1.81549a164.91561,164.91561,0,0,0,19.11767-8.69239l2.31055-1.1828,2.11816-1.21032,4.23609-2.42066,8.47229-4.86883,16.91711-9.68262,4.20862-2.42066c1.37537-.79773,2.39319-1.3479,3.65857-1.98053a54.67642,54.67642,0,0,1,7.427-3.05334,56.4681,56.4681,0,0,1,15.73413-2.80579,57.13147,57.13147,0,0,1,30.80835,7.86713,56.11215,56.11215,0,0,1,21.64844,23.21631c9.93017,19.20025,7.427,44.06695-6.2992,60.764a28.02128,28.02128,0,0,1-2.64074,3.05328,34.76335,34.76335,0,0,1-2.83325,2.86078l-3.05323,2.77826-3.71362,3.21838-14.82642,12.87348-14.82666,12.87353-7.39941,6.46423-7.2345,6.68433a731.48712,731.48712,0,0,0-54.73987,56.77539c-17.1372,20.108-33.20141,41.42627-46.18505,65.22022-3.24585,5.91412-6.18921,12.0758-8.96741,18.34747a184.5937,184.5937,0,0,0-7.06946,19.50281,139.171,139.171,0,0,0-4.40112,20.71313c-.35767,3.60346-.74268,7.15192-.77027,10.81043l-.08252,2.69574.02759,2.42065v4.86884c.24756,25.88452-.85278,51.769,2.7782,77.68109a8.39835,8.39835,0,0,0,7.592,7.15191,8.66631,8.66631,0,0,0,8.995-7.56457c2.9707-21.53833,2.69568-43.07666,2.69568-64.58753,2.22814-12.4884,5.9967-25.66442,19.14514-30.20318,7.1521-2.44818,15.01916-3.7135,22.8313-4.78632h345.8789c7.812,1.07282,15.6792,2.33814,22.83118,4.78632,13.121,4.51123,16.88953,17.65979,19.14514,30.12067-.02747,21.70343-.13745,43.37927,2.77832,65.0827a8.296,8.296,0,0,0,7.592,7.17944,8.62724,8.62724,0,0,0,8.96741-7.61957c3.38342-25.747,2.55823-51.494,2.72327-77.26849v-7.262l-.08252-2.69574-.2201-5.44648c-.13757-1.788-.38513-3.54846-.57763-5.33648a135.702,135.702,0,0,0-4.3462-20.76813,200.155,200.155,0,0,0-16.06433-37.82275c-12.98352-23.79395-29.04785-45.11225-46.18505-65.22022a737.16527,737.16527,0,0,0-54.76734-56.80292q-14.35895-13.4511-29.21289-26.29711-7.42713-6.39552-14.96411-12.681l-3.76856-3.13581-3.08081-2.75079a40.13021,40.13021,0,0,1-2.83325-2.88825,25.09045,25.09045,0,0,1-2.61328-3.05334c-13.7262-16.697-16.28442-41.59131-6.27173-60.73651a56.19048,56.19048,0,0,1,21.676-23.21631,57.59071,57.59071,0,0,1,30.78076-7.86713,55.70511,55.70511,0,0,1,15.76172,2.83332,51.37054,51.37054,0,0,1,7.427,3.05328c1.26538.63269,2.25562,1.18286,3.65857,1.98053l4.23621,2.42072,16.917,9.71008,8.44482,4.84131,4.23609,2.42071,2.11816,1.21033,2.33813,1.1828a162.03458,162.03458,0,0,0,19.09021,8.69238l5.03382,1.81549,5.309,1.51288,2.66821.74268,2.80579.52264c1.89795.30261,3.7135.74274,5.69409.9353a47.72568,47.72568,0,0,0,25.14184-3.24591,62.66767,62.66767,0,0,0,6.07911-3.35589c1.81543-1.37537,3.631-2.80579,5.30883-4.34619a47.538,47.538,0,0,0,7.83973-10.23279,74.80284,74.80284,0,0,0,7.92212-21.51081,165.25051,165.25051,0,0,0,2.97082-20.79565c1.01782-13.64374.9353-26.92981.66016-40.02338-.30249-13.121-.85279-25.967-.96277-38.73053l-.74268-38.868-.4126-19.47528c-.02746-1.62292-.08252-3.3009,0-4.51123.08252-1.29285.05506-2.61322.13758-3.93353l.55005-3.8786a36.91458,36.91458,0,0,1,.82519-3.851,48.09094,48.09094,0,0,1,6.13428-14.35888,53.57654,53.57654,0,0,1,10.37036-11.7732,49.75084,49.75084,0,0,1,78.25867,20.82312,50.417,50.417,0,0,1,3.16333,15.51423l1.04529,19.39276.38513,7.427a6.20986,6.20986,0,0,0,.08252,1.733l7.67456,146.00964a11.14455,11.14455,0,0,0,12.54333,10.39783,10.82023,10.82023,0,0,0,8.99512-7.8396l.02734-.02753v-.055l37.1626-125.324,9.29761-31.331,4.64868-15.65179,2.31067-7.8396c.38513-1.4029.77014-2.33814,1.12781-3.41095a30.6029,30.6029,0,0,1,1.18286-3.13587,49.9061,49.9061,0,0,1,6.79431-11.41558,50.78212,50.78212,0,0,1,9.62756-9.1875,49.25439,49.25439,0,0,1,24.75678-9.16,51.29042,51.29042,0,0,1,13.28613.68769,53.4458,53.4458,0,0,1,12.65344,4.20867,49.45893,49.45893,0,0,1,19.6128,17.63227,57.76578,57.76578,0,0,1,3.24591,5.85907,55.0013,55.0013,0,0,1,2.3656,6.2442,49.25145,49.25145,0,0,1,.68768,26.40716l-3.87854,15.87183-31.02844,126.86444-.02747.055a11.12453,11.12453,0,0,0,8.91242,13.5337,10.80764,10.80764,0,0,0,10.97546-4.81379l.02753-.02752,57.54559-85.93335,28.71784-42.8291a42.27668,42.27668,0,0,1,54.05212-13.58869,41.67747,41.67747,0,0,1,15.12915,13.121,43.0312,43.0312,0,0,1,7.34448,18.70508,42.11647,42.11647,0,0,1-2.17309,19.88794,46.1323,46.1323,0,0,1-2.09058,4.78626l-2.86078,5.8316-5.6665,11.7182c-3.76856,7.81207-7.45453,15.67926-11.14057,23.54639-7.262,15.76178-14.41388,31.57855-21.20825,47.56042-12.21332,28.41516-33.36658,86.75855-33.36658,86.75855l-3.631,10.70038s-.055.13751-.08252.22009c-2.3106,6.73932-6.38171,20.493-6.38171,20.493l-4.86884,17.27466s-2.33813,8.44482-3.27337,12.76349a435.56847,435.56847,0,0,0-9.62763,52.29169c-3.43841,30.8634-5.584,61.83679-6.71179,92.81018a11.07389,11.07389,0,0,0-.82526,4.15362,10.747,10.747,0,0,0,.55018,3.27344c-.055,1.29285-.11,2.58569-.165,3.906-.46765,17.35723-.60517,34.82446-.44013,52.09918.08252,8.63733.22,17.24719.66016,25.857.41266,8.60987.99029,17.21967,2.09057,25.85706a8.34629,8.34629,0,0,0,8.80243,7.23443,8.526,8.526,0,0,0,7.75708-7.50952c1.07282-8.55481,1.65046-17.08215,2.06305-25.637.44013-8.60986.57764-17.24719.63269-25.88452q-.04128-11.42935.08252-22.83124a25.58754,25.58754,0,0,1,25.55445-25.36188h357.267c.38514.02753.77021.05506,1.12781.05506a9.77229,9.77229,0,0,0,9.87519-9.98523v-52.2367a10.68959,10.68959,0,0,1,15.32165-9.62762l14.38641,6.93188,38.45545,18.32c25.637,12.26831,51.30139,24.42664,77.92865,34.6319a8.26816,8.26816,0,0,0,10.53534-4.34619A8.55049,8.55049,0,0,0,2645.61285,1895.82582ZM1024.29528,1364.79414a12.11713,12.11713,0,0,1-13.3136,12.24084h-.13757a71.04278,71.04278,0,0,0-65.96277,32.54133A66.80342,66.80342,0,0,0,936.739,1427.016a68.74815,68.74815,0,0,0-3.136,19.03522,67.21339,67.21339,0,0,0,2.03565,19.09015l3.87866,15.87183,6.4917,26.5722c1.87036,7.61957-8.27979,12.04828-12.59839,5.50153l-28.60791-43.29676-1.15527-1.733a71.45315,71.45315,0,0,1-12.24073-39.99591V1349.5a17.96145,17.96145,0,0,1,17.96241-17.93487h96.96374a17.94393,17.94393,0,0,1,17.9624,17.93487Zm309.78907,224.32343a39.5358,39.5358,0,0,1-2.94324,8.27972c-2.86084,5.80408-8.22486,10.17773-14.22144,13.91876-9.82007,4.97888-20.328,9.1875-29.73559,10.34284a24.30026,24.30026,0,0,1-12.9834-1.29285c-3.32849-1.51294-6.10669-4.18115-8.47241-8.27979a54.30214,54.30214,0,0,1-5.36389-14.82653,136.06677,136.06677,0,0,1-2.5033-17.63227c-.96265-12.15826-.88013-24.8117-.63257-37.60272.27515-12.791.85278-25.77447.96277-38.95056l.275-14.24884a17.76522,17.76522,0,0,1,17.76978-17.43976h40.07837a17.76191,17.76191,0,0,1,17.7699,17.76984Zm0-157.53528a17.78539,17.78539,0,0,1-17.7699,17.7973H1259.209l.08252-4.45618c.11011-2.9433,0-7.207-.22-10.948l-.74268-5.749c-.27514-1.89807-.79785-3.76855-1.21045-5.639a72.07756,72.07756,0,0,0-24.28906-38.40045,70.64654,70.64654,0,0,0-19.83276-11.66315,77.08508,77.08508,0,0,0-11.80078-3.41095v-19.75036a17.80891,17.80891,0,0,1,17.79736-17.7973h97.32129a17.78539,17.78539,0,0,1,17.7699,17.7973Zm39.80334,17.7973a17.79131,17.79131,0,0,1-17.79736-17.7973v-82.21985a17.79131,17.79131,0,0,1,17.79736-17.7973h97.294a17.79121,17.79121,0,0,1,17.79724,17.7973v82.21985a17.79121,17.79121,0,0,1-17.79724,17.7973Zm195.63306,304.2876c22.446,4.23614,40.491,19.69537,57.32556,34.05426a9.0366,9.0366,0,0,0,.90784.63269c8.47216,8.74737,16.72448,17.65979,24.61914,26.84729,16.50439,19.20019,31.79858,39.4732,43.68188,61.17657.385.68769.74268,1.4029,1.10022,2.09058,4.07117,9.05,5.474,19.06268-7.702,21.20825-4.20874.66016-8.25219.79773-12.24084,1.10028h-354.4613c-3.98853-.30255-8.03211-.44012-12.24073-1.10028-13.2312-2.1731-11.77319-12.24084-7.64709-21.3183.35754-.66015.66015-1.32031,1.0177-1.98053,11.91077-21.70337,27.17749-41.97638,43.68188-61.17657,7.89466-9.16,16.09192-18.04492,24.53662-26.76477a7.64732,7.64732,0,0,0,1.01783-.71521c16.83459-14.35889,34.87951-29.81812,57.32556-34.05426,12.24084-2.33814,24.56421-1.01776,36.25488-2.72321h66.568C1544.95654,1752.64943,1557.28,1751.32905,1569.52075,1753.66719Zm-30.25818-25.71949a80.59922,80.59922,0,0,1-8.71985.9903h-61.12158a80.60136,80.60136,0,0,1-8.72-.9903c-11.30542-2.3106-5.83155-13.34112-1.21021-20.493.05493-.055.08252-.11.13745-.165,14.55152-17.60479,20.24561-41.70135,16.28443-64.06488-.27515-8.05969-3.54846-15.76178-2.91577-23.82147.38513-4.86883,3.46594-7.152,7.5371-8.25226h38.89551c4.07105,1.10028,7.15186,3.38343,7.53711,8.25226.63257,8.14221-2.6958,15.89929-2.94336,24.0415-3.87854,22.28107,1.81543,46.24006,16.28443,63.81733.05493.08252.13745.13757.1925.22009C1545.12158,1714.63411,1550.54052,1725.6371,1539.26257,1727.9477Zm104.611-161.08367c-.05518.35754-.08252.74267-.13769,1.10028-.66016,5.19891-.52259,10.81042-6.29908,12.98352-3.136,1.15533-6.8219.90771-10.23291.57763a80.88492,80.88492,0,0,0-22.00586-3.851,82.30616,82.30616,0,0,0-22.30859,2.50317,6.64957,6.64957,0,0,0-1.54041.38507c-.82531.27509-1.65051.52265-2.4757.79773-.88025.27509-1.788.55018-2.66822.85273a155.55552,155.55552,0,0,1-27.42492,6.32672c-1.843.24756-3.7135.4126-5.55652.60516h-14.44141a17.76788,17.76788,0,0,1-17.79736-17.76984v-82.21978a17.76788,17.76788,0,0,1,17.79736-17.76984h97.294a17.76788,17.76788,0,0,1,17.79736,17.76984Zm0-135.28174a17.79132,17.79132,0,0,1-17.79736,17.7973h-97.29395a17.79132,17.79132,0,0,1-17.79736-17.7973v-82.21985a17.79132,17.79132,0,0,1,17.79736-17.7973h97.294a17.79132,17.79132,0,0,1,17.79736,17.7973Zm98.229,148.01764a136.33628,136.33628,0,0,1-2.47558,17.60479,52.64688,52.64688,0,0,1-5.33643,14.85407c-2.39319,4.09857-5.11645,6.8493-8.49975,8.27972a25.02682,25.02682,0,0,1-12.95606,1.34784,73.67157,73.67157,0,0,1-16.422-4.37366,7.14226,7.14226,0,0,0-1.34777-.88024c-11.27808-5.584-21.511-11.03052-24.72925-24.23407-2.72327-11.33307-3.32837-23.60144-4.4563-35.34711v-67.69586a17.762,17.762,0,0,1,17.76978-17.76984h40.07849a17.76522,17.76522,0,0,1,17.76977,17.43976l.275,14.19385c.1101,13.14856.68774,26.1596.96289,38.95056S1743.06542,1567.38661,1742.10253,1579.59993Zm211.56006-211.09229c-1.7605,13.75372-7.9497,24.75671-16.03686,37.10761-1.26538,1.92547-2.42066,3.851-3.54859,5.80407-.22.4126-.44006.8252-.68762,1.2378-.165.27508-.33008.57769-.49512.88025a59.29007,59.29007,0,0,0-3.27331,6.62933c-.71533,1.45788-1.12793,3.02582-1.70557,4.51117-.52258,1.51294-1.10034,3.13586-1.43042,4.34619l-2.31054,7.83966-4.64881,15.67926-9.29748,31.331-6.54688,22.116c-3.54834,5.0614-8.38965,8.19727-12.29577-.13751-2.1731-4.64874-1.65052-11.058-2.5857-16.09186-.055-.27508-.11-.55017-.165-.79773l-1.568-32.29376-.93518-19.39276a73.55018,73.55018,0,0,0-4.51123-22.391,72.85357,72.85357,0,0,0-50.8888-45.27735,12.83816,12.83816,0,0,1-9.95776-12.43335v-12.846a12.7727,12.7727,0,0,1,12.76343-12.76342h87.85889c6.02417.30255,12.24084-.55017,18.375.82519,11.58068,2.58569,12.35083,13.75372,13.89135,23.98651Zm90.74707,178.08337.02753-.13757c.02753,0,.02753.02753.055.02753Zm92.61768,154.06928c.22-.93524.52264-1.87048.74267-2.80573,8.93995-25.03179,18.8426-49.78851,29.32294-74.32519,6.65686-15.76178,13.72626-31.386,20.87818-46.95526,3.631-7.75708,7.262-15.51416,10.97552-23.24378l5.61151-11.58062,2.80573-5.77661a64.27594,64.27594,0,0,0,3.05334-7.0694,65.11517,65.11517,0,0,0,3.38342-31.02844,66.21989,66.21989,0,0,0-11.41558-29.02039,65.36149,65.36149,0,0,0-23.54639-20.438,67.6468,67.6468,0,0,0-24.34412-6.93188c-7.06939-1.29285-14.13885-3.3559-18.595-9.43506-3.576-4.86878-4.7038-11.38806-5.33649-17.49475v-93.993a10.98829,10.98829,0,0,0-11.003-11.003H880.4038a10.98851,10.98851,0,0,0-11.00317,11.003v93.993c-.63257,6.10669-1.7605,12.626-5.33643,17.49475-4.45605,6.07916-11.553,8.16974-18.65014,9.43506a65.29193,65.29193,0,0,0-47.83545,27.31494,66.35283,66.35283,0,0,0-11.41553,29.02038,65.72026,65.72026,0,0,0,6.40918,38.12537l2.8335,5.77655,5.61133,11.58063c3.686,7.72961,7.37207,15.45923,10.97558,23.24383q10.76916,23.31254,20.90576,46.9552c10.39771,24.48169,20.32788,49.18335,29.24024,74.16016.24756,1.01776.55029,2.00806.79785,2.99829,4.37353,18.375-4.979,25.33441-19.97046,28.27771h-37.3a78.73158,78.73158,0,0,1-78.644-78.64386V1257.70759a78.74929,78.74929,0,0,1,78.644-78.64392H2194.29785a78.74914,78.74914,0,0,1,78.64386,78.64392v392.58655a78.73143,78.73143,0,0,1-78.64386,78.64386h-37.30011C2142.00616,1725.9947,2132.65362,1719.03529,2137.02734,1700.66029Z" transform="translate(-150.1329 -969.977)"/><circle class="a" cx="1031.66726" cy="1241.56073" r="28.19509" transform="translate(-465.65056 -617.74364) rotate(-16.84502)"/><circle class="a" cx="1190.19281" cy="1241.56073" r="28.19526" transform="matrix(0.9665, -0.25667, 0.25667, 0.9665, -428.9297, -622.90019)"/><circle class="a" cx="1345.08737" cy="1241.56073" r="28.19517" transform="translate(-601.97251 -77.39552) rotate(-31.71751)"/><circle class="a" cx="1958.61387" cy="1241.56073" r="28.19518" transform="translate(-382.99007 -486.76713) rotate(-13.28252)"/><path class="a" d="M2507.77294,1055.77534a.60991.60991,0,0,0,.13758-.08252c18.485-9.27,36.88751-18.67773,54.49225-29.73559a8.3168,8.3168,0,0,0,2.75079-11.22315,8.49192,8.49192,0,0,0-10.26032-3.521c-19.47528,6.98706-38.15283,15.5968-56.77539,24.31665q-28.0989,13.08-56.08776,26.46215l-27.86506,13.5337-27.755,13.8363c-18.51251,9.215-36.86005,18.73254-54.29974,30.14819a8.35006,8.35006,0,0,0-2.66822,11.11292,8.52806,8.52806,0,0,0,10.15021,3.6311c19.64038-6.65686,38.40045-15.15674,56.99548-23.959l28.00263-13.28614,27.89258-13.53369c.30255-.165.60516-.30261.93524-.46765a11.63167,11.63167,0,0,1,16.80707,10.42542v.1925c-.11005,12.59839.19256,25.1969.30255,37.79529.08252,12.5708.41266,25.16919.85272,37.7677.52264,12.59839,1.04529,25.16931,2.00806,37.7677a8.28695,8.28695,0,0,0,8.52734,7.64709,8.54171,8.54171,0,0,0,8.00464-8.00463c.96277-12.48841,1.45795-24.94935,1.98059-37.41016.44006-12.59851.7702-25.1969.85272-37.7677.13751-12.59839.4126-25.1969.30255-37.79529,0-4.56628-.02752-9.16-.055-13.75378A26.86323,26.86323,0,0,1,2507.77294,1055.77534Z" transform="translate(-150.1329 -969.977)"/><path class="a" d="M2569.60974,1432.40748c-16.14685-.99023-32.32129-1.65045-48.49567-2.09057-16.28442-.46759-32.59631-.90772-48.88074-.99024-16.31195-.11-32.59637.165-48.90832.63263-8.14221.22009-16.31189.52265-24.4541.96277q-12.21333.5364-24.45417,1.51294a8.26167,8.26167,0,0,0-7.592,8.52728,8.51567,8.51567,0,0,0,7.97718,8.0047c8.03216.63269,16.03686,1.12781,24.069,1.48541,8.14221.44013,16.31189.74268,24.4541.96277,9.60016.27509,19.20025.49512,28.80035.57764a18.30313,18.30313,0,0,1,18.09992,18.32v.19256q-.08259,14.97785.22,29.98316c.3576,19.97039.99029,39.96832,2.9433,59.93878a8.29831,8.29831,0,0,0,8.49981,7.482,8.52107,8.52107,0,0,0,8.03217-7.8396c1.95306-19.86041,2.55823-39.72076,2.91583-59.58117q.28876-15.019.22-29.98316v-.82519a18.32159,18.32159,0,0,1,17.79737-18.34748c3.41088-.08252,6.84936-.165,10.26025-.27508,16.31195-.46765,32.59637-1.12781,48.90826-2.11811a8.2789,8.2789,0,0,0,7.75715-8.58233A8.53947,8.53947,0,0,0,2569.60974,1432.40748Z" transform="translate(-150.1329 -969.977)"/><path class="a" d="M2477.76232,1257.9001c-17.05462,4.04364-34.13678,7.9497-51.13641,12.26837-8.49982,2.118-16.97211,4.42871-25.41687,6.76684-8.47229,2.25562-16.88959,4.78626-25.27936,7.39948a8.28664,8.28664,0,0,0-5.55652,10.04022,8.54953,8.54953,0,0,0,9.62763,5.96912c8.55481-1.29285,17.10962-2.69574,25.58191-4.31867,8.63739-1.62292,17.24719-3.24585,25.82953-5.03387,8.1972-1.70545,16.36694-3.49341,24.53668-5.3089a11.728,11.728,0,0,1,14.27637,11.49811v.13751c-.05506,9.68262.08252,19.3653.27508,29.02039.165,9.68261.49512,19.36523.90772,29.02038.55017,9.68262,1.04528,19.36524,1.98053,29.02039a8.29831,8.29831,0,0,0,8.49981,7.482,8.51707,8.51707,0,0,0,8.03217-7.81207c.9353-9.54511,1.43042-19.11774,1.95306-28.69031.4126-9.65515.74268-19.33777.90772-29.02038.19256-9.65509.33014-19.33777.27508-29.02039v-.19257a24.675,24.675,0,0,1,19.17273-24.124l73.16986-16.477,102.38275-24.069c34.16431-7.89477,68.246-16.17444,101.86017-26.40723a8.25086,8.25086,0,0,0,5.584-10.06762,8.50985,8.50985,0,0,0-9.65515-5.94165c-34.57691,5.50146-68.71363,12.90088-102.76789,20.71313l-102.63037,23.1062Z" transform="translate(-150.1329 -969.977)"/><path class="a" d="M2507.2503,1630.95637a1.19032,1.19032,0,0,1,.13757.02753q33.13275,7.427,66.3205,14.49646c22.116,4.78625,44.287,9.325,66.78809,12.46087a8.32435,8.32435,0,0,0,9.27-6.62933,8.5335,8.5335,0,0,0-5.91406-9.57257c-21.48334-6.98688-43.29675-12.57092-65.16522-17.90735q-32.96768-8.08722-65.96289-15.92682c-22.03351-5.14392-44.09448-10.20532-66.21045-15.0191-22.061-4.92383-44.177-9.73767-66.89819-11.93823a8.37052,8.37052,0,0,0-9.02246,6.98687,8.52676,8.52676,0,0,0,5.584,9.215c21.29077,7.92212,43.21423,13.20355,65.1377,18.40247,1.32031.30261,2.61322.63269,3.93353.96277a32.61733,32.61733,0,0,1,24.97681,31.85363c0,2.36566-.02753,4.73133,0,7.09693-.11005,12.04828.11,24.12408.24755,36.17236.11,12.04822.30256,24.124.79773,36.1723.52265,12.04828,1.07276,24.124,2.11805,36.1723a8.27558,8.27558,0,0,0,8.52734,7.56458,8.52928,8.52928,0,0,0,8.00464-7.92218c1.01782-11.93823,1.59546-23.87647,2.09057-35.8147.49518-12.04828.68769-24.12408.79773-36.1723.13752-12.04828.35761-24.12408.27509-36.17236q0-6.56049-.08252-13.121A11.65024,11.65024,0,0,1,2507.2503,1630.95637Z" transform="translate(-150.1329 -969.977)"/><path class="a" d="M2616.50994,978.25923a98.11417,98.11417,0,0,0-10.34277,5.529,58.57628,58.57628,0,0,0-9.51758,7.15186,8.85494,8.85494,0,0,0-2.58569,7.45459,8.67968,8.67968,0,0,0,9.79266,7.39941,58.18192,58.18192,0,0,0,11.52564-3.05322,100.77957,100.77957,0,0,0,10.7279-4.73133c3.46594-1.76049,6.90436-3.631,10.20526-5.72155a73.00851,73.00851,0,0,0,9.62763-6.95948,8.52773,8.52773,0,0,0-7.207-14.82641,75.49745,75.49745,0,0,0-11.41559,3.27344C2623.63439,975.0959,2620.05847,976.6363,2616.50994,978.25923Z" transform="translate(-150.1329 -969.977)"/><path class="a" d="M2738.28552,1429.1891q-26.03577.12378-52.04413.71521c-8.66486.19256-17.35718.49512-26.022.93524-8.66486.38513-17.32972.88025-26.0221,1.59546a8.28083,8.28083,0,0,0,0,16.50445c8.69238.71521,17.35724,1.21033,26.0221,1.59546,8.66485.44013,17.35717.74268,26.022.93525q26.03586.57769,52.04413.71521c17.32971.02752,34.687-.2201,52.01666-.5777,17.35718-.38507,34.68689-1.07276,52.04413-2.66822a8.28809,8.28809,0,0,0,0-16.50445c-17.35724-1.59546-34.68695-2.28314-52.04413-2.66821C2772.97247,1429.40919,2755.61523,1429.16163,2738.28552,1429.1891Z" transform="translate(-150.1329 -969.977)"/><path class="a" d="M2789.642,1675.32594c-7.89465-2.97083-15.92682-5.44647-23.98651-7.70209-8.05969-2.31061-16.2019-4.31866-24.34411-6.2442-8.16968-1.87048-16.33942-3.60345-24.59168-5.0614-8.2522-1.48535-16.55951-2.7782-24.97674-3.52094a8.3169,8.3169,0,0,0-3.686,16.0644c7.89465,3.02581,15.89935,5.47393,23.98651,7.75708,8.05969,2.28314,16.17438,4.29113,24.34412,6.1892,8.16974,1.8155,16.36694,3.57593,24.6192,5.03382,8.25226,1.48541,16.532,2.77826,24.94928,3.54846a8.31435,8.31435,0,0,0,3.686-16.06433Z" transform="translate(-150.1329 -969.977)"/><path class="b" d="M1560.15283,1696.66352c.33691.33643.65527.68848.97314,1.03907a17.38493,17.38493,0,0,0,1.898,1.88965l3.106,2.77246,3.771,3.14013c4.771,3.96485,9.66016,8.10889,14.94483,12.667,9.91211,8.582,19.7334,17.41894,29.189,26.26269a734.37524,734.37524,0,0,1,54.68457,56.73047c20.03125,23.49072,34.67139,44.16064,46.07129,65.04687a198.05746,198.05746,0,0,1,15.97608,37.61182,137.37822,137.37822,0,0,1,4.31884,20.60791c.06934.65186.14649,1.29981.22315,1.9458.13135,1.102.2666,2.24072.35254,3.31934l.21924,5.439.07959,2.67041v7.25342c-.02979,4.7124-.02637,9.42481-.02246,14.13721l.00244,5.88965,1.16406-.19385c4.22119-.70166,8.36572-3.23779,11.98535-7.33447,18.52979-20.97217,43.37256-33.55616,69.95068-35.43457,31.1211-2.19629,55.42676,11.59179,81.15528,26.1875l2.30176,1.30517c56.26074,31.88135,121.55029,33.67578,174.65039,4.79834l.52148-.2832.001-.59326c.01953-11.355.188-22.98145.499-34.53662l.17822-4.07618-.05322-.16894a9.75434,9.75434,0,0,1-.50391-2.98047,10.05975,10.05975,0,0,1,.74756-3.77588l.06543-.1626.00635-.1748c1.17334-32.15283,3.4292-63.354,6.70264-92.72119a430.84341,430.84341,0,0,1,9.61523-52.20313c.92334-4.24316,3.2334-12.62207,3.25488-12.70068l4.8667-17.26807c.04053-.13721,4.09034-13.80664,6.36817-20.45361.01709-.04932.04883-.11621.05176-.12207l3.66113-10.77686c.21142-.58349,21.27978-58.648,33.33984-86.70947,5.85108-13.74854,12.38867-28.4082,21.19531-47.52686l.90381-1.92773c3.3291-7.10156,6.772-14.44482,10.23145-21.61133l5.66748-11.71533,2.85986-5.8291a46.53987,46.53987,0,0,0,2.12988-4.873,42.96777,42.96777,0,0,0,2.22315-20.37549,43.99344,43.99344,0,0,0-7.50879-19.14257,43.12668,43.12668,0,0,0-35.47607-18.2002c-.07862-.00049-.15625-.00049-.23487-.00049a43.16587,43.16587,0,0,0-35.12158,18.6836L2084.61914,1525.02l-57.48536,85.84814-.084.10987a9.85409,9.85409,0,0,1-9.94873,4.38867,10.47889,10.47889,0,0,1-6.85547-4.57861,10.09456,10.09456,0,0,1-1.31689-7.59278l.02685-.04541,31.06592-127.01709,3.87012-15.87011a50.32076,50.32076,0,0,0-.68848-26.917,45.14389,45.14389,0,0,0-1.94336-5.23632l-.50439-1.19825c-.24366-.46435-.48194-.93213-.72071-1.3999a40.32973,40.32973,0,0,0-2.5581-4.52734,50.141,50.141,0,0,0-20.03858-18.002,54.25589,54.25589,0,0,0-12.9165-4.293,51.59752,51.59752,0,0,0-13.53272-.69971,50.0046,50.0046,0,0,0-25.26953,9.35742,51.53594,51.53594,0,0,0-9.82275,9.38086,50.46166,50.46166,0,0,0-6.8916,11.55322,13.64617,13.64617,0,0,0-.83789,2.12793c-.12256.37256-.24512.7461-.40479,1.15821-.10693.31835-.21631.625-.32666.936-.26416.74463-.5376,1.51465-.81445,2.51025l-6.95947,23.48877-46.46,156.65967-.021.08252a9.86815,9.86815,0,0,1-8.14014,7.127,10.4398,10.4398,0,0,1-7.92529-2.36572,10.1251,10.1251,0,0,1-3.5166-7.09228l-7.68018-146.00977-.01513-.12744a5.41052,5.41052,0,0,1-.06739-1.45947l.00635-.0708-1.43311-26.88868a50.80342,50.80342,0,0,0-23.0957-40.51025,50.31708,50.31708,0,0,0-27.17676-8.15332c-1.13134,0-2.26269.041-3.38818.12354a50.55868,50.55868,0,0,0-29.40186,11.48339,54.261,54.261,0,0,0-10.561,11.98487,48.65566,48.65566,0,0,0-6.28906,14.72949c-.08985.48779-.21485.96484-.33838,1.44141a14.5491,14.5491,0,0,0-.48828,2.44921l-.55811,3.96045c-.04053.66944-.05615,1.33887-.07129,2.00537-.01513.648-.02929,1.293-.06885,1.9292-.07128,1.08594-.04394,2.46289-.01464,3.9209l.42285,20.144.75,38.85938c.06933,8.03076.31787,16.26758.5581,24.23291.145,4.80615.291,9.64014.40186,14.50879.30225,14.6499.30615,27.0459-.65674,39.915a163.16337,163.16337,0,0,1-2.95019,20.6709,73.47549,73.47549,0,0,1-7.82813,21.25879,32.65856,32.65856,0,0,1-2.33057,3.59277c-.37646.52978-.75244,1.05957-1.09863,1.57178a34.83492,34.83492,0,0,1-2.94238,3.42334c-.44971.48047-.898.959-1.25879,1.36963-1.67481,1.53515-3.48242,2.95117-5.18994,4.25341-.48584.28125-.97022.56983-1.45508.85791a40.86409,40.86409,0,0,1-4.47217,2.42041,46.83492,46.83492,0,0,1-24.6416,3.16016c-1.231-.11768-2.43652-.34326-3.60254-.56152-.67627-.12647-1.35156-.25245-2.00732-.35547l-2.71875-.51123-7.90674-2.22657-5.02393-1.81787a158.03362,158.03362,0,0,1-18.98584-8.645l-2.29492-1.15527-35.95654-20.61426c-1.45508-.81445-2.42969-1.35547-3.69873-2.00049a53.5492,53.5492,0,0,0-7.562-3.10449,56.62892,56.62892,0,0,0-16.04981-2.88183,58.91191,58.91191,0,0,0-31.31543,7.99755,56.9516,56.9516,0,0,0-22.062,23.62354c-10.16748,19.45508-7.541,44.88086,6.3584,61.79736A25.66443,25.66443,0,0,0,1560.15283,1696.66352Z" transform="translate(-150.1329 -969.977)"/><path class="b" d="M812.63183,1526.06587l8.55567,17.5415c4.02636,8.418,7.65917,16.1084,11.10546,23.5083,7.70606,16.65967,14.64942,32.21826,21.22754,47.56446,12.06055,28.14843,33.29688,86.314,33.501,86.87451,1.33105,3.957,3.3291,9.91943,3.53906,10.59375l.02149.07422c2.03906,6.81787,6.1875,20.40088,6.1875,20.40088.06738.23242,6.73242,23.30664,8.35839,30.11035a400.01828,400.01828,0,0,1,9.51856,52.16406c3.292,29.31006,5.55762,60.55762,6.73437,92.87451l.00586.17481.06543.16259a9.77343,9.77343,0,0,1,.72754,3.666,10.10041,10.10041,0,0,1-.47851,2.918l-.043.14551.002.15136c.00977.66944.03809,1.33936.06543,2.01123.02734.65332.05469,1.30909.06445,1.98291.335,11.66748.50977,23.2959.52051,34.562l.001.59375.52148.28369c53.08692,28.86035,118.37012,27.0625,174.62989-4.80811l2.2998-1.30469c25.73047-14.5957,50.043-28.38037,81.167-26.188,26.56836,1.87744,51.41016,14.46191,69.95117,35.43457a23.262,23.262,0,0,0,11.93262,7.61181l1.22461.28418.00586-3.49512c.00977-5.52734.01953-11.24316-.03418-16.86279v-4.88232l-.0293-2.37793.08008-2.72217c.02735-3.38086.35156-6.61084.69531-10.03076l.06543-.65576a139.6718,139.6718,0,0,1,4.36817-20.55811,182.963,182.963,0,0,1,7.02441-19.38769c3.11524-7.02393,6.03614-12.998,8.9336-18.26661,11.36718-20.84277,26.00488-41.51269,46.06152-65.04736a728.17864,728.17864,0,0,1,54.6582-56.69678l7.22071-6.66162,40.77343-35.44287,3.02149-2.7456a20.96254,20.96254,0,0,0,2.12109-2.09082c.2627-.28565.52539-.57081.77539-.82959a27.93015,27.93015,0,0,0,2.71289-3.13916c13.88477-16.87745,16.52246-42.313,6.42285-61.83936a56.87426,56.87426,0,0,0-22.03515-23.63623,58.535,58.535,0,0,0-31.35449-7.999,57.55533,57.55533,0,0,0-16.00391,2.84814,55.29949,55.29949,0,0,0-7.56836,3.1167c-1.29883.64941-2.33984,1.21289-3.71191,2.00781L1332.335,1628.6352l-2.31543,1.1836a167.53794,167.53794,0,0,1-18.998,8.64648l-4.9668,1.78907-5.30664,1.51806a41.49178,41.49178,0,0,1-5.34668,1.23828c-.60254.10352-1.18945.22217-1.77246.34033a26.27561,26.27561,0,0,1-3.87695.583,46.49549,46.49549,0,0,1-24.54688-3.05371c-.43847-.22949-.88086-.45605-1.32324-.68262a39.85531,39.85531,0,0,1-4.57324-2.59765c-.52344-.41211-1.06543-.814-1.60742-1.2168a26.51615,26.51615,0,0,1-3.59668-3.00635c-.32813-.34521-.66211-.688-.99707-1.03125a27.00033,27.00033,0,0,1-3.30371-3.82519,41.34257,41.34257,0,0,1-3.45606-5.18213,76.78148,76.78148,0,0,1-7.8418-21.21191,156.4934,156.4934,0,0,1-2.94824-20.67872c-1.10351-14.06787-.93359-27.98291-.6875-39.92041.11133-5.1914.27149-10.42041.42676-15.477.23438-7.644.47656-15.54834.543-23.23535l1.12891-58.32226c.10937-2.95166.01757-5.00293-.08008-7.17481l-.06641-1.46-.5-3.875a20.75427,20.75427,0,0,0-.48437-2.38232c-.125-.50782-.25-1.01612-.35938-1.59375a53.11273,53.11273,0,0,0-6.23535-14.6792,51.99516,51.99516,0,0,0-10.62793-11.9541,47.869,47.869,0,0,0-13.7334-8.12989,53.89645,53.89645,0,0,0-15.7832-3.47558c-.98535-.05762-1.99219-.08643-3.00586-.08643-1.625,0-3.2666.07373-4.85938.22022a53.95471,53.95471,0,0,0-7.86914,1.435,50.80188,50.80188,0,0,0-34.55859,31.14209,50.98078,50.98078,0,0,0-3.25488,15.81348l-1.04,19.40137-8.13965,155.22119a9.81815,9.81815,0,0,1-6.249,8.81982,10.34817,10.34817,0,0,1-8.25489-.39746,10.05624,10.05624,0,0,1-5.07812-6.09521l-37.11035-125.33106L1053.3623,1435.041l-1.11133-3.46534-.18555-.51464c-.332-.92383-.6455-1.79639-1.02246-2.6709a49.21637,49.21637,0,0,0-16.75293-21.022,50.26911,50.26911,0,0,0-25.22753-9.40771,50.781,50.781,0,0,0-26.48047,5.002,50.11205,50.11205,0,0,0-20.02539,17.94043,50.126,50.126,0,0,0-6.51856,39.25l3.87988,15.90088,31.03223,126.84522.02734.1206a9.76445,9.76445,0,0,1-3.44824,10.27,10.42988,10.42988,0,0,1-7.98633,1.9917,10.12866,10.12866,0,0,1-6.62207-4.30176l-57.5498-85.93017L886.64746,1482.184a43.47133,43.47133,0,0,0-35.33985-18.67822,42.62688,42.62688,0,0,0-19.96972,4.73291,42.98624,42.98624,0,0,0-23.0293,32.55322v.00391a42.80728,42.80728,0,0,0,2.19336,20.39746A45.70594,45.70594,0,0,0,812.63183,1526.06587Z" transform="translate(-150.1329 -969.977)"/></svg>