<?xml version="1.0" encoding="utf-8"?>
<!-- Generator: Adobe Illustrator 21.0.2, SVG Export Plug-In . SVG Version: 6.00 Build 0)  -->
<svg version="1.1" id="Слой_1" xmlns="http://www.w3.org/2000/svg" xmlns:xlink="http://www.w3.org/1999/xlink" x="0px" y="0px"
	 viewBox="0 0 684 578" style="enable-background:new 0 0 684 578;" xml:space="preserve">
<style type="text/css">
	.st0{fill:#27277A;}
	.st1{fill:#004EF8;}
	.st2{fill:#FFE5B6;}
	.st3{fill:#FFFFFF;}
	.st4{fill:#EF2111;}
	.st5{fill:#FFD99C;}
	.st6{fill:#1066FF;}
	.st7{fill:#44877A;}
	.st8{fill:#E2697D;}
	.st9{fill:#FFCCE9;}
	.st10{fill:#8CD1C4;}
</style>
<g id="BG">
	<g>
		<path class="st0" d="M524.5,393.7c8.7,73-99.2,96.2-163.7,69.7c-63.4-26.1-39.1-61.9-133.1-59.8c-1.5,0-3,0.1-4.5,0.1
			c-64.8,2.2-101.3-39.5-97.2-79.3c2.2-21.2,16-41.9,43.2-55.1c29.4-14.3,41-28.7,45.9-43.3c6.3-18.8,1.4-38,8.8-57.9
			c2.2-5.8,5.4-11.7,10.3-17.7c29.9-36.4,85,12.4,173.4-55.3c59-45.2,147.5,16.3,107,83.8c-24.4,40.7-18.4,85.1-8.1,130.4
			c0.3,1.5,0.7,2.9,1,4.4c1.7,7.2,3.4,14.4,5.2,21.6c2.8,11.9,5.6,23.7,7.9,35.6C522.3,378.4,523.6,386.1,524.5,393.7z"/>
	</g>
	<g>
		<path class="st1" d="M520.9,370.8c-33.5,4.3-48.4,32.7-69.6,14.5c-23.6-20.2,7.4-57.4,56.6-71.7c1.7,7.2,3.4,14.4,5.2,21.6
			C515.8,347.1,518.6,358.9,520.9,370.8z"/>
	</g>
	<g>
		<path class="st1" d="M284.2,214.5c-40.5-2.6-51.4,6.2-69,11.3c2-6,2.9-12,3.4-18.1c0.8-10.3,0.6-20.8,3-31.4
			c0.6-2.8,1.4-5.6,2.5-8.4c50.1-0.6,138.9-0.6,150.1,18.6C387.2,208.8,344.2,218.4,284.2,214.5z"/>
	</g>
	<g>
		<path class="st2" d="M227.7,403.5c-1.5,0-3,0.1-4.5,0.1c-64.8,2.2-101.3-39.5-97.2-79.3c25-6.4,64.4,4.9,88.5,45.6
			C221.6,381.8,225.8,393.2,227.7,403.5z"/>
	</g>
	<g>
		<path class="st3" d="M196.2,366.7c-11.3-19.2-32.7-31-55-30.3c-1.9,0.1-1.9,3.1,0,3c21.3-0.6,41.6,10.5,52.4,28.9
			C194.6,369.9,197.2,368.4,196.2,366.7z"/>
	</g>
	<g>
		<path class="st4" d="M240.6,396.7c-6.1-27-21.9-51-44.4-67.1c-1.6-1.1-3.6,1.1-2,2.2c22.1,15.9,37.5,39.3,43.5,65.8
			C238.2,399.5,241,398.6,240.6,396.7z"/>
	</g>
	<g>
		<path class="st5" d="M170.3,381.2l-16-16c-1.4-1.4-3.5,0.8-2.1,2.1c5.3,5.3,10.7,10.7,16,16C169.5,384.7,171.6,382.6,170.3,381.2z
			"/>
	</g>
	<g>
		<path class="st5" d="M182.3,383.2l-13-13c-1.4-1.4-3.5,0.8-2.1,2.1c4.3,4.3,8.7,8.7,13,13C181.5,386.7,183.6,384.6,182.3,383.2z"
			/>
	</g>
	<g>
		<path class="st5" d="M164.3,356.2l-8-8c-1.4-1.4-3.5,0.8-2.1,2.1c2.7,2.7,5.3,5.3,8,8C163.5,359.7,165.6,357.6,164.3,356.2z"/>
	</g>
	<g>
		<path class="st6" d="M497.2,331.3c-19,4-32,14-12,17S514.1,327.7,497.2,331.3z"/>
	</g>
	<g>
		<path class="st6" d="M268.2,201.3c-0.8,9.4-27.1,4.7-49.6,6.5c0.8-10.3,0.6-20.8,3-31.4C248.4,182.9,269,191.4,268.2,201.3z"/>
	</g>
</g>
<g id="Noise">
	<g>
		<path class="st3" d="M244.8,261.1h-41c-1.9,0-1.9,3,0,3h41C246.7,264.1,246.7,261.1,244.8,261.1z"/>
	</g>
	<g>
		<path class="st5" d="M515.8,261.6h-41c-1.9,0-1.9,3,0,3h41C517.7,264.6,517.7,261.6,515.8,261.6z"/>
	</g>
	<g>
		<path class="st5" d="M281.9,168.6l-41-41c-1.4-1.4-3.5,0.8-2.1,2.1c13.7,13.7,27.3,27.3,41,41
			C281.1,172.1,283.2,169.9,281.9,168.6z"/>
	</g>
	<g>
		<path class="st3" d="M271.8,181.7l-22-22c-1.4-1.4-3.5,0.8-2.1,2.1c7.3,7.3,14.7,14.7,22,22C271,185.2,273.1,183.1,271.8,181.7z"
			/>
	</g>
	<g>
		<path class="st5" d="M485.7,282.3h-25c-1.9,0-1.9,3,0,3h25C487.6,285.3,487.6,282.3,485.7,282.3z"/>
	</g>
	<g>
		<path class="st3" d="M426.7,146.7c-4.3,4.3-8.7,8.7-13,13c-1.4,1.4,0.8,3.5,2.1,2.1c4.3-4.3,8.7-8.7,13-13
			C430.1,147.5,428,145.3,426.7,146.7z"/>
	</g>
	<g>
		<path class="st3" d="M460.7,128.7c-12.7,12.7-25.3,25.3-38,38c-1.4,1.4,0.8,3.5,2.1,2.1c12.7-12.7,25.3-25.3,38-38
			C464.1,129.5,462,127.3,460.7,128.7z"/>
	</g>
	<g>
		<path class="st5" d="M238.7,277.3h-61c-1.9,0-1.9,3,0,3h61C240.6,280.3,240.6,277.3,238.7,277.3z"/>
	</g>
	<g>
		<path class="st5" d="M272.7,333.7l-15,15c-1.4,1.4,0.8,3.5,2.1,2.1l15-15C276.1,334.5,274,332.3,272.7,333.7z"/>
	</g>
	<g>
		<path class="st3" d="M476.8,395.7l-53-53c-1.4-1.4-3.5,0.8-2.1,2.1c17.7,17.7,35.3,35.3,53,53C476,399.2,478.1,397.1,476.8,395.7z
			"/>
	</g>
	<g>
		<path class="st5" d="M453.8,347.7l-17-17c-1.4-1.4-3.5,0.8-2.1,2.1c5.7,5.7,11.3,11.3,17,17C453,351.2,455.1,349.1,453.8,347.7z"
			/>
	</g>
	<g>
		<path class="st4" d="M447.4,454.8c-9.9,0-18-8.1-18-18s8.1-18,18-18s18,8.1,18,18S457.3,454.8,447.4,454.8z M447.4,421.8
			c-8.3,0-15,6.7-15,15c0,8.3,6.7,15,15,15s15-6.7,15-15C462.4,428.5,455.6,421.8,447.4,421.8z"/>
	</g>
	<g>
		<path class="st4" d="M478.9,195.3c-4.1,0-7.5-3.4-7.5-7.5s3.4-7.5,7.5-7.5c4.1,0,7.5,3.4,7.5,7.5S483,195.3,478.9,195.3z
			 M478.9,183.3c-2.5,0-4.5,2-4.5,4.5s2,4.5,4.5,4.5c2.5,0,4.5-2,4.5-4.5S481.3,183.3,478.9,183.3z"/>
	</g>
	<g>
		<path class="st0" d="M535.2,171.2c-8.3,8.3-16.7,16.7-25,25c-1.4,1.4,0.8,3.5,2.1,2.1c8.3-8.3,16.7-16.7,25-25
			C538.6,172,536.5,169.8,535.2,171.2z"/>
	</g>
	<g>
		<path class="st0" d="M530.2,189.2c-8.7,8.7-17.3,17.3-26,26c-1.4,1.4,0.8,3.5,2.1,2.1c8.7-8.7,17.3-17.3,26-26
			C533.6,190,531.5,187.8,530.2,189.2z"/>
	</g>
	<g>
		<path class="st0" d="M209.2,224.2c-7.3,7.3-14.7,14.7-22,22c-1.4,1.4,0.8,3.5,2.1,2.1c7.3-7.3,14.7-14.7,22-22
			C212.6,225,210.5,222.8,209.2,224.2z"/>
	</g>
	<g>
		<path class="st0" d="M296.2,426.2l-21,21c-1.4,1.4,0.8,3.5,2.1,2.1l21-21C299.6,427,297.5,424.8,296.2,426.2z"/>
	</g>
	<g>
		<path class="st0" d="M299.2,436.2l-9,9c-1.4,1.4,0.8,3.5,2.1,2.1l9-9C302.6,437,300.5,434.8,299.2,436.2z"/>
	</g>
</g>
<g id="Object">
	<g>
		<g>
			<polygon class="st7" points="315,404 327,392.1 326.8,406 			"/>
		</g>
	</g>
	<g>
		<g>
			<polygon class="st7" points="384,409.3 372,421.3 372.2,407.3 			"/>
		</g>
	</g>
	<g>
		<polygon class="st8" points="280.8,204 295.8,189 288.3,207.1 		"/>
	</g>
	<g>
		<polygon class="st8" points="393.1,363 380.3,375.8 378.1,361.6 		"/>
	</g>
	<g>
		<circle class="st8" cx="347.4" cy="263.1" r="89.3"/>
	</g>
	<g>
		<rect x="314.5" y="336.1" class="st8" width="65.8" height="39.7"/>
	</g>
	<g>
		<circle class="st9" cx="359.7" cy="250.8" r="89.3"/>
	</g>
	<g>
		<rect x="326.8" y="323.8" class="st9" width="65.8" height="39.7"/>
	</g>
	<g>
		<path class="st6" d="M374.2,363.5h-3V292h-23v71.5h-3v-73c0-0.8,0.7-1.5,1.5-1.5h26c0.8,0,1.5,0.7,1.5,1.5V363.5z"/>
	</g>
	<g>
		<path class="st6" d="M381.5,292H373c-0.8,0-1.5-0.7-1.5-1.5V272c0-5.5,4.5-10,10-10s10,4.5,10,10v10
			C391.5,287.5,387,292,381.5,292z M374.5,289h7c3.9,0,7-3.1,7-7v-10c0-3.9-3.1-7-7-7s-7,3.1-7,7V289z"/>
	</g>
	<g>
		<path class="st6" d="M347.5,292.5H339c-5.5,0-10-4.5-10-10v-10c0-5.5,4.5-10,10-10s10,4.5,10,10V291
			C349,291.8,348.3,292.5,347.5,292.5z M339,265.5c-3.9,0-7,3.1-7,7v10c0,3.9,3.1,7,7,7h7v-17C346,268.6,342.8,265.5,339,265.5z"/>
	</g>
	<g>
		<path class="st3" d="M316.8,259.7c3.1-0.1,5.7-2.5,5.7-5.7c0-4,0-19.2,0-23.2c0-3-2.6-5.9-5.7-5.7c-3.1,0.1-5.7,2.5-5.7,5.7
			c0,4,0,19.2,0,23.2C311.1,257,313.7,259.8,316.8,259.7z"/>
	</g>
	<g>
		<path class="st3" d="M359.7,320.4c-0.8,0-1.5-0.7-1.5-1.5s0.7-1.5,1.5-1.5c36.7,0,66.6-29.9,66.6-66.6c0-36.7-29.9-66.6-66.6-66.6
			s-66.6,29.9-66.6,66.6c0,0.8-0.7,1.5-1.5,1.5s-1.5-0.7-1.5-1.5c0-38.4,31.2-69.6,69.6-69.6s69.6,31.2,69.6,69.6
			C429.4,289.2,398.1,320.4,359.7,320.4z"/>
	</g>
	<g>
		<path class="st3" d="M334.4,305.9c-4.9,4.9-9.8,9.8-14.7,14.7c-1.4,1.4,0.8,3.5,2.1,2.1c4.9-4.9,9.8-9.8,14.7-14.7
			C337.9,306.7,335.8,304.5,334.4,305.9z"/>
	</g>
	<g>
		<path class="st3" d="M333.1,321.2c-1.1,1.1-2.2,2.2-3.3,3.3c-1.4,1.4,0.8,3.5,2.1,2.1c1.1-1.1,2.2-2.2,3.3-3.3
			C336.6,322,334.4,319.9,333.1,321.2z"/>
	</g>
	<g>
		<path class="st3" d="M390.4,207.2c-12.7,12.7-25.3,25.3-38,38c-1.4,1.4,0.8,3.5,2.1,2.1l38-38C393.9,208,391.8,205.9,390.4,207.2z
			"/>
	</g>
	<g>
		<g>
			<path class="st7" d="M363,425.3h-39.3c-6.9,0-12.5-5.6-12.5-12.5s5.6-12.5,12.5-12.5H363c6.9,0,12.5,5.6,12.5,12.5
				S369.9,425.3,363,425.3z"/>
		</g>
	</g>
	<g>
		<g>
			<path class="st10" d="M375.6,412.7h-39.3c-6.9,0-12.5-5.6-12.5-12.5s5.6-12.5,12.5-12.5h39.3c6.9,0,12.5,5.6,12.5,12.5
				S382.5,412.7,375.6,412.7z"/>
		</g>
	</g>
	<g>
		<g>
			<path class="st7" d="M346.5,402.8H332c-1.9,0-1.9,3,0,3h14.5C348.4,405.8,348.4,402.8,346.5,402.8z"/>
		</g>
	</g>
	<g>
		<g>
			<path class="st3" d="M381,394.8h-49c-1.9,0-1.9,3,0,3h49C382.9,397.8,382.9,394.8,381,394.8z"/>
		</g>
	</g>
	<g>
		<g>
			<path class="st0" d="M357.2,417.8h-31c-1.9,0-1.9,3,0,3h31C359.1,420.8,359.1,417.8,357.2,417.8z"/>
		</g>
	</g>
</g>
</svg>
